<?xml version="1.0" encoding="UTF-8" standalone="no"?>
<!DOCTYPE svg PUBLIC "-//W3C//DTD SVG 1.1//EN" "http://www.w3.org/Graphics/SVG/1.1/DTD/svg11.dtd">
<svg xmlns="http://www.w3.org/2000/svg" xmlns:xl="http://www.w3.org/1999/xlink" version="1.1" viewBox="764 309 165 90" width="165pt" height="90pt" xmlns:dc="http://purl.org/dc/elements/1.1/">
  <metadata> Produced by OmniGraffle 7.4 
    <dc:date>2017-07-12 20:54:31 +0000</dc:date>
  </metadata>
  <defs/>
  <g stroke="none" stroke-opacity="1" stroke-dasharray="none" fill="none" fill-opacity="1">
    <title>Canvas 1</title>
    <g>
      <title>Layer 1</title>
      <path d="M 866.5542 352.95 L 866.5542 309 L 928.6542 309 L 928.6542 399 L 866.5542 399 L 866.5542 386.05 L 899.6542 369.5 Z M 879.6409 335.29024 L 879.6409 335.29024 C 879.6409 333.97773 879.1605 332.84102 878.1995 331.8801 C 877.2386 330.91914 876.0902 330.43868 874.7542 330.43868 C 873.4183 330.43868 872.2698 330.91914 871.3089 331.8801 C 870.348 332.84102 869.8675 333.98945 869.8675 335.3254 C 869.8675 336.68478 870.348 337.84492 871.3089 338.80586 C 872.2464 339.74337 873.3948 340.2121 874.7542 340.2121 C 876.137 340.2121 877.2972 339.74337 878.2347 338.80586 C 879.1722 337.86836 879.6409 336.6965 879.6409 335.29024 Z" fill="#dadada"/>
      <path d="M 826.1 352.95 L 826.1 309 L 764 309 L 764 399 L 826.1 399 L 826.1 386.05 L 793 369.5 Z M 813.0133 335.29024 L 813.0133 335.29024 C 813.0133 333.97773 813.4938 332.84102 814.4547 331.8801 C 815.4156 330.91914 816.5641 330.43868 817.9 330.43868 C 819.236 330.43868 820.3844 330.91914 821.3453 331.8801 C 822.3063 332.84102 822.7867 333.98945 822.7867 335.3254 C 822.7867 336.68478 822.3063 337.84492 821.3453 338.80586 C 820.4078 339.74337 819.2594 340.2121 817.9 340.2121 C 816.5172 340.2121 815.357 339.74337 814.4195 338.80586 C 813.482 337.86836 813.0133 336.6965 813.0133 335.29024 Z" fill="#dadada"/>
      <path d="M 867.0516 389.57227 L 867.0516 381.48633 L 893.6649 368.9004 L 867.0516 356.24415 L 867.0516 348.2285 L 902.3133 365.4551 L 902.3133 372.38086 Z" fill="#666"/>
      <path d="M 855.4419 335.526 L 860.8911 337.92833 L 834.9927 397.86973 L 829.6021 395.4381 Z" fill="#666"/>
      <path d="M 826.1484 348.19336 L 826.1484 356.2793 L 799.5 368.9004 L 826.1484 381.5215 L 826.1484 389.5371 L 790.8516 372.31055 L 790.8516 365.38477 Z" fill="#666"/>
    </g>
  </g>
</svg>
