<?xml version="1.0" encoding="UTF-8" standalone="no"?>
<!DOCTYPE svg PUBLIC "-//W3C//DTD SVG 1.1//EN" "http://www.w3.org/Graphics/SVG/1.1/DTD/svg11.dtd">
<svg xmlns="http://www.w3.org/2000/svg" xmlns:xl="http://www.w3.org/1999/xlink" version="1.1" viewBox="853 590 141 86" width="141pt" height="86pt" xmlns:dc="http://purl.org/dc/elements/1.1/">
  <metadata> Produced by OmniGraffle 7.4 
    <dc:date>2017-07-07 04:55:14 +0000</dc:date>
  </metadata>
  <defs/>
  <g stroke="none" stroke-opacity="1" stroke-dasharray="none" fill="none" fill-opacity="1">
    <title>Canvas 1</title>
    <g>
      <title>Layer 1</title>
      <path d="M 902.5608 659.6698 C 901.6258 663.6427 898.0583 666.6 893.8 666.6 L 862 666.6 C 857.0294 666.6 853 662.5706 853 657.6 L 853 599.6 C 853 594.62944 857.0294 590.6 862 590.6 L 893.8 590.6 C 898.7706 590.6 902.8 594.62944 902.8 599.6 L 902.8 625.4 L 871.2 642.6 Z M 888.1766 608.1766 C 886.3411 610.0121 886.3411 612.9879 888.1766 614.8234 C 890.0121 616.6589 892.9879 616.6589 894.8234 614.8234 C 896.6589 612.9879 896.6589 610.0121 894.8234 608.1766 C 892.9879 606.3411 890.0121 606.3411 888.1766 608.1766" fill="#dead26"/>
      <path d="M 944.1392 659.6698 C 945.0742 663.6427 948.6417 666.6 952.9 666.6 L 984.7 666.6 C 989.6706 666.6 993.7 662.5706 993.7 657.6 L 993.7 599.6 C 993.7 594.62944 989.6706 590.6 984.7 590.6 L 952.9 590.6 C 947.9294 590.6 943.9 594.62944 943.9 599.6 L 943.9 625.4 L 975.5 642.6 Z M 958.5234 608.1766 C 960.3589 610.0121 960.3589 612.9879 958.5234 614.8234 C 956.6879 616.6589 953.7121 616.6589 951.8766 614.8234 C 950.0411 612.9879 950.0411 610.0121 951.8766 608.1766 C 953.7121 606.3411 956.6879 606.3411 958.5234 608.1766" fill="#3a8eed"/>
      <path d="M 933.6877 613.126 L 939.1369 615.5283 L 913.2385 675.4697 L 907.8479 673.0381 Z" fill="#666"/>
      <path d="M 902.8 622.8 L 902.8 630.88595 L 876.1516 643.50704 L 902.8 656.1281 L 902.8 664.14376 L 867.5031 646.9172 L 867.5031 639.9914 Z" fill="#6d5000"/>
      <path d="M 943.9 664.14376 L 943.9 656.0578 L 970.5133 643.4719 L 943.9 630.8156 L 943.9 622.8 L 979.1617 640.0266 L 979.1617 646.95235 Z" fill="#003776"/>
    </g>
  </g>
</svg>
