<?xml version="1.0" encoding="UTF-8" standalone="no"?>
<!DOCTYPE svg PUBLIC "-//W3C//DTD SVG 1.1//EN" "http://www.w3.org/Graphics/SVG/1.1/DTD/svg11.dtd">
<svg xmlns="http://www.w3.org/2000/svg" xmlns:xl="http://www.w3.org/1999/xlink" version="1.1" viewBox="121 -417 1152 1408" width="96pc" height="1408pt" xmlns:dc="http://purl.org/dc/elements/1.1/">
  <metadata> Produced by OmniGraffle 7.4.2 
    <dc:date>2017-09-02 21:32:26 +0000</dc:date>
  </metadata>
  <defs/>
  <g stroke="none" stroke-opacity="1" stroke-dasharray="none" fill="none" fill-opacity="1">
    <title>Canvas 1</title>
    <rect fill="white" width="1152" height="1408"/>
    <g>
      <title>Layer 1</title>
      <path d="M 825 479 C 825 443.66667 812.5 413.5 787.5 388.5 C 762.5 363.5 732.3333 351 697 351 C 661.6667 351 631.5 363.5 606.5 388.5 C 581.5 413.5 569 443.66667 569 479 C 569 503.66667 575.3333 526 588 546 C 600.6667 566 617.6667 581.6667 639 593 L 570 822 C 566.6667 832 568.3333 841.3333 575 850 C 581.6667 858.6667 590.3333 863 601 863 L 793 863 C 803.6667 863 812.3333 858.6667 819 850 C 825.6667 841.3333 827.3333 832 824 822 L 755 593 C 776.3333 581.6667 793.3333 566 806 546 C 818.6667 526 825 503.66667 825 479 Z M 441 223 L 953 223 L 953 31 C 953 -39.666667 928 -100 878 -150 C 828 -200 767.6667 -225 697 -225 C 626.3333 -225 566 -200 516 -150 C 466 -100 441 -39.666667 441 31 Z M 1273 319 L 1273 895 C 1273 921.6667 1263.6667 944.3333 1245 963 C 1226.3333 981.6667 1203.6667 991 1177 991 L 217 991 C 190.33333 991 167.66667 981.6667 149 963 C 130.33333 944.3333 121 921.6667 121 895 L 121 319 C 121 292.33333 130.33333 269.66667 149 251 C 167.66667 232.33333 190.33333 223 217 223 L 249 223 L 249 31 C 249 -91.66667 293 -197 381 -285 C 469 -373 574.3333 -417 697 -417 C 819.6667 -417 925 -373 1013 -285 C 1101 -197 1145 -91.66667 1145 31 L 1145 223 L 1177 223 C 1203.6667 223 1226.3333 232.33333 1245 251 C 1263.6667 269.66667 1273 292.33333 1273 319 Z" fill="#dadada" fill-opacity=".19674296"/>
    </g>
  </g>
</svg>
