<?xml version="1.0" encoding="UTF-8" standalone="no"?>
<!DOCTYPE svg PUBLIC "-//W3C//DTD SVG 1.1//EN" "http://www.w3.org/Graphics/SVG/1.1/DTD/svg11.dtd">
<svg xmlns="http://www.w3.org/2000/svg" xmlns:xl="http://www.w3.org/1999/xlink" version="1.1" viewBox="853 590 455 86" width="455pt" height="86pt" xmlns:dc="http://purl.org/dc/elements/1.1/">
  <metadata> Produced by OmniGraffle 7.4 
    <dc:date>2017-07-07 04:55:14 +0000</dc:date>
  </metadata>
  <defs/>
  <g stroke="none" stroke-opacity="1" stroke-dasharray="none" fill="none" fill-opacity="1">
    <title>Canvas 1</title>
    <g>
      <title>Layer 1</title>
      <path d="M 902.5608 659.6698 C 901.6258 663.6427 898.0583 666.6 893.8 666.6 L 862 666.6 C 857.0294 666.6 853 662.5706 853 657.6 L 853 599.6 C 853 594.62944 857.0294 590.6 862 590.6 L 893.8 590.6 C 898.7706 590.6 902.8 594.62944 902.8 599.6 L 902.8 625.4 L 871.2 642.6 Z M 888.1766 608.1766 C 886.3411 610.0121 886.3411 612.9879 888.1766 614.8234 C 890.0121 616.6589 892.9879 616.6589 894.8234 614.8234 C 896.6589 612.9879 896.6589 610.0121 894.8234 608.1766 C 892.9879 606.3411 890.0121 606.3411 888.1766 608.1766" fill="#dead26"/>
      <path d="M 944.1392 659.6698 C 945.0742 663.6427 948.6417 666.6 952.9 666.6 L 984.7 666.6 C 989.6706 666.6 993.7 662.5706 993.7 657.6 L 993.7 599.6 C 993.7 594.62944 989.6706 590.6 984.7 590.6 L 952.9 590.6 C 947.9294 590.6 943.9 594.62944 943.9 599.6 L 943.9 625.4 L 975.5 642.6 Z M 958.5234 608.1766 C 960.3589 610.0121 960.3589 612.9879 958.5234 614.8234 C 956.6879 616.6589 953.7121 616.6589 951.8766 614.8234 C 950.0411 612.9879 950.0411 610.0121 951.8766 608.1766 C 953.7121 606.3411 956.6879 606.3411 958.5234 608.1766" fill="#3a8eed"/>
      <path d="M 933.6877 613.126 L 939.1369 615.5283 L 913.2385 675.4697 L 907.8479 673.0381 Z" fill="#666"/>
      <path d="M 902.8 622.8 L 902.8 630.88595 L 876.1516 643.50704 L 902.8 656.1281 L 902.8 664.14376 L 867.5031 646.9172 L 867.5031 639.9914 Z" fill="#6d5000"/>
      <path d="M 943.9 664.14376 L 943.9 656.0578 L 970.5133 643.4719 L 943.9 630.8156 L 943.9 622.8 L 979.1617 640.0266 L 979.1617 646.95235 Z" fill="#003776"/>
      <path d="M 1042.2656 626.4258 L 1042.2656 636.9375 C 1040.4609 634.7344 1038.8438 633.22266 1037.4141 632.40234 C 1036.0078 631.5586 1034.3555 631.1367 1032.457 631.1367 C 1029.4805 631.1367 1027.0078 632.1797 1025.0391 634.2656 C 1023.0703 636.3516 1022.0859 638.9648 1022.0859 642.1055 C 1022.0859 645.3164 1023.0351 647.9531 1024.9336 650.0156 C 1026.8555 652.0781 1029.3047 653.1094 1032.2812 653.1094 C 1034.1797 653.1094 1035.8555 652.6992 1037.3086 651.8789 C 1038.7149 651.082 1040.3672 649.5352 1042.2656 647.2383 L 1042.2656 657.6797 C 1039.0547 659.34376 1035.8438 660.1758 1032.6328 660.1758 C 1027.3359 660.1758 1022.9063 658.4649 1019.3438 655.043 C 1015.7812 651.59764 1014 647.3203 1014 642.2109 C 1014 637.1015 1015.8047 632.7891 1019.4141 629.2734 C 1023.0235 625.7578 1027.4531 624 1032.7031 624 C 1036.0781 624 1039.2656 624.8086 1042.2656 626.4258 Z" fill="#666"/>
      <path d="M 1046.5 600 L 1054.4102 600 L 1054.4102 627.9844 C 1057.2227 625.4531 1060.3281 624.1875 1063.7266 624.1875 C 1067.5938 624.1875 1070.6875 625.4414 1073.0078 627.9492 C 1074.9766 630.1289 1075.961 633.60935 1075.961 638.3906 L 1075.961 659.3789 L 1068.0508 659.3789 L 1068.0508 639.1289 C 1068.0508 636.3867 1067.5645 634.4004 1066.5918 633.1699 C 1065.6191 631.93945 1064.0547 631.3242 1061.8984 631.3242 C 1059.1328 631.3242 1057.1875 632.1797 1056.0625 633.8906 C 1054.9609 635.625 1054.4102 638.60154 1054.4102 642.8203 L 1054.4102 659.3789 L 1046.5 659.3789 Z" fill="#666"/>
      <path d="M 1104.8594 624.9492 L 1112.8047 624.9492 L 1112.8047 659.1914 L 1104.8594 659.1914 L 1104.8594 655.6055 C 1101.6015 658.65236 1098.0977 660.1758 1094.3477 660.1758 C 1089.6133 660.1758 1085.6992 658.4649 1082.6055 655.043 C 1079.5351 651.5508 1078 647.1914 1078 641.96484 C 1078 636.832 1079.5351 632.5547 1082.6055 629.1328 C 1085.6758 625.7109 1089.5195 624 1094.1367 624 C 1098.1211 624 1101.6953 625.6406 1104.8594 628.9219 Z M 1086.086 641.96484 C 1086.086 645.2461 1086.9648 647.91796 1088.7227 649.9805 C 1090.5274 652.0664 1092.8008 653.1094 1095.543 653.1094 C 1098.4727 653.1094 1100.8398 652.1016 1102.6445 650.0859 C 1104.4492 648 1105.3516 645.3516 1105.3516 642.1406 C 1105.3516 638.9297 1104.4492 636.28126 1102.6445 634.1953 C 1100.8398 632.15624 1098.4961 631.1367 1095.6133 631.1367 C 1092.8945 631.1367 1090.6211 632.16796 1088.793 634.2305 C 1086.9883 636.3164 1086.086 638.8945 1086.086 641.96484 Z" fill="#666"/>
      <path d="M 1126.7852 632.9336 L 1126.7852 659.793 L 1118.875 659.793 L 1118.875 632.9336 L 1115.5 632.9336 L 1115.5 625.5508 L 1118.875 625.5508 L 1118.875 613 L 1126.7852 613 L 1126.7852 625.5508 L 1132.9375 625.5508 L 1132.9375 632.9336 Z" fill="#666"/>
      <path d="M 1132.7626 655.4902 C 1132.7626 654.1777 1133.243 653.041 1134.204 652.0801 C 1135.165 651.1191 1136.3134 650.6387 1137.6493 650.6387 C 1138.9853 650.6387 1140.1337 651.1191 1141.0946 652.0801 C 1142.0556 653.041 1142.536 654.18945 1142.536 655.5254 C 1142.536 656.8848 1142.0556 658.0449 1141.0946 659.00586 C 1140.1571 659.9434 1139.0087 660.4121 1137.6493 660.4121 C 1136.2665 660.4121 1135.1064 659.9434 1134.1688 659.00586 C 1133.2313 658.06835 1132.7626 656.8965 1132.7626 655.4902 Z" fill="#666"/>
      <path d="M 1171.6268 626.6621 L 1171.6268 637.1738 C 1169.822 634.9707 1168.2049 633.459 1166.7752 632.6387 C 1165.369 631.7949 1163.7166 631.37305 1161.8182 631.37305 C 1158.8416 631.37305 1156.369 632.416 1154.4002 634.50195 C 1152.4314 636.5879 1151.4471 639.20116 1151.4471 642.3418 C 1151.4471 645.55275 1152.3963 648.18944 1154.2947 650.25195 C 1156.2166 652.3145 1158.6658 653.3457 1161.6424 653.3457 C 1163.5408 653.3457 1165.2166 652.93555 1166.6697 652.1152 C 1168.076 651.31836 1169.7283 649.7715 1171.6268 647.4746 L 1171.6268 657.916 C 1168.4158 659.5801 1165.2049 660.4121 1161.994 660.4121 C 1156.697 660.4121 1152.2674 658.7012 1148.7049 655.2793 C 1145.1424 651.834 1143.3611 647.5567 1143.3611 642.4473 C 1143.3611 637.3379 1145.1658 633.0254 1148.7752 629.5098 C 1152.3846 625.9941 1156.8142 624.2363 1162.0643 624.2363 C 1165.4393 624.2363 1168.6267 625.0449 1171.6268 626.6621 Z" fill="#666"/>
      <path d="M 1174.5 641.8242 C 1174.5 636.8789 1176.2695 632.6719 1179.8086 629.2031 C 1183.3477 625.73436 1187.6601 624 1192.7461 624 C 1197.8555 624 1202.1914 625.7461 1205.7539 629.2383 C 1209.2695 632.7305 1211.0273 637.0195 1211.0273 642.1055 C 1211.0273 647.2383 1209.2578 651.53905 1205.7188 655.0078 C 1202.1562 658.45314 1197.7852 660.1758 1192.6055 660.1758 C 1187.4726 660.1758 1183.1719 658.418 1179.7031 654.90234 C 1176.2344 651.4336 1174.5 647.07424 1174.5 641.8242 Z M 1182.586 641.96484 C 1182.586 645.3867 1183.5 648.09374 1185.3281 650.0859 C 1187.2031 652.1016 1189.6758 653.1094 1192.7461 653.1094 C 1195.8399 653.1094 1198.3125 652.1133 1200.164 650.1211 C 1202.0156 648.1289 1202.9414 645.4688 1202.9414 642.1406 C 1202.9414 638.8125 1202.0156 636.15235 1200.164 634.16016 C 1198.289 632.1445 1195.8164 631.1367 1192.7461 631.1367 C 1189.7226 631.1367 1187.2734 632.1445 1185.3984 634.16016 C 1183.5234 636.1758 1182.586 638.7773 1182.586 641.96484 Z" fill="#666"/>
      <path d="M 1238.8594 600 L 1246.8047 600 L 1246.8047 659.3789 L 1238.8594 659.3789 L 1238.8594 655.793 C 1235.7422 658.83986 1232.2149 660.3633 1228.2773 660.3633 C 1223.5898 660.3633 1219.6992 658.6524 1216.6055 655.2305 C 1213.5351 651.7383 1212 647.3789 1212 642.15234 C 1212 637.04294 1213.5351 632.77736 1216.6055 629.3555 C 1219.6524 625.91014 1223.4844 624.1875 1228.1016 624.1875 C 1232.1094 624.1875 1235.6953 625.8281 1238.8594 629.1094 Z M 1220.086 642.15234 C 1220.086 645.4336 1220.9648 648.10546 1222.7227 650.168 C 1224.5274 652.2539 1226.8008 653.2969 1229.543 653.2969 C 1232.4727 653.2969 1234.8398 652.2891 1236.6445 650.2734 C 1238.4492 648.1875 1239.3516 645.5391 1239.3516 642.3281 C 1239.3516 639.1172 1238.4492 636.46876 1236.6445 634.3828 C 1234.8398 632.34374 1232.4961 631.3242 1229.6133 631.3242 C 1226.8945 631.3242 1224.6211 632.35546 1222.793 634.418 C 1220.9883 636.5039 1220.086 639.082 1220.086 642.15234 Z" fill="#666"/>
      <path d="M 1282.3008 643.9336 L 1257.7617 643.9336 C 1257.9727 646.7461 1258.8867 648.9844 1260.5039 650.6484 C 1262.1211 652.2891 1264.1953 653.1094 1266.7266 653.1094 C 1268.6953 653.1094 1270.3242 652.6406 1271.6133 651.7031 C 1272.8789 650.7656 1274.3203 649.0313 1275.9375 646.5 L 1282.6172 650.2266 C 1281.586 651.9844 1280.4961 653.4902 1279.3477 654.74414 C 1278.1992 655.99805 1276.9688 657.0293 1275.6562 657.8379 C 1274.3437 658.6465 1272.9258 659.2383 1271.4023 659.6133 C 1269.8789 659.9883 1268.2266 660.1758 1266.4453 660.1758 C 1261.3359 660.1758 1257.2344 658.5352 1254.1406 655.2539 C 1251.0469 651.9492 1249.5 647.5664 1249.5 642.1055 C 1249.5 636.6914 1251 632.3086 1254 628.957 C 1257.0235 625.6523 1261.0312 624 1266.0234 624 C 1271.0625 624 1275.0469 625.60545 1277.9766 628.8164 C 1280.8828 632.0039 1282.336 636.42185 1282.336 642.0703 Z M 1274.1797 637.46484 C 1273.0781 633.2461 1270.418 631.1367 1266.1992 631.1367 C 1265.2383 631.1367 1264.336 631.2832 1263.4922 631.5762 C 1262.6484 631.86914 1261.8809 632.291 1261.1895 632.8418 C 1260.498 633.3926 1259.9063 634.0547 1259.414 634.8281 C 1258.9219 635.6016 1258.5469 636.4805 1258.289 637.46484 Z" fill="#666"/>
      <path d="M 1305.7188 630.78516 L 1299.1797 634.2656 C 1298.1484 632.15624 1296.8711 631.1016 1295.3477 631.1016 C 1294.6211 631.1016 1294 631.3418 1293.4844 631.8223 C 1292.9687 632.3027 1292.711 632.918 1292.711 633.668 C 1292.711 634.9805 1294.2344 636.28124 1297.2812 637.5703 C 1301.4766 639.375 1304.3008 641.03905 1305.7539 642.5625 C 1307.207 644.08595 1307.9336 646.1367 1307.9336 648.71484 C 1307.9336 652.01955 1306.7149 654.78515 1304.2773 657.0117 C 1301.9101 659.1211 1299.0508 660.1758 1295.6992 660.1758 C 1289.957 660.1758 1285.8906 657.375 1283.5 651.7734 L 1290.25 648.6445 C 1291.1875 650.2852 1291.9023 651.3281 1292.3945 651.7734 C 1293.3555 652.6641 1294.5039 653.1094 1295.8398 653.1094 C 1298.5117 653.1094 1299.8477 651.8906 1299.8477 649.4531 C 1299.8477 648.0469 1298.8164 646.7344 1296.7539 645.5156 C 1295.957 645.1172 1295.1602 644.7305 1294.3633 644.3555 C 1293.5664 643.9805 1292.7578 643.59375 1291.9375 643.1953 C 1289.6406 642.0703 1288.0234 640.9453 1287.086 639.8203 C 1285.8906 638.3906 1285.293 636.5508 1285.293 634.3008 C 1285.293 631.3242 1286.3125 628.8633 1288.3516 626.918 C 1290.4375 624.97265 1292.9687 624 1295.9453 624 C 1300.3281 624 1303.586 626.2617 1305.7188 630.78516 Z" fill="#666"/>
    </g>
  </g>
</svg>
